<?xml version="1.0" encoding="UTF-8" standalone="no"?>
<svg xmlns="http://www.w3.org/2000/svg" viewBox="0 0 512 512" width="512" height="512">
  <!-- Background rectangle with rounded corners -->
  <rect width="512" height="512" rx="60" ry="60" fill="#7c7bad"/>
  
  <!-- Bell icon in white -->
  <path fill="#ffffff" d="M256 96c-35 0-64 29-64 64v45c0 23-9 45-24 62l-56 63c-6 7-10 16-10 25 0 21 17 39 38 39h232c21 0 38-18 38-39 0-9-4-18-10-25l-56-63c-15-17-24-39-24-62v-45c0-35-29-64-64-64zm0 48c9 0 16 7 16 16v45c0 35 13 68 37 94l41 46H162l41-46c24-26 37-59 37-94v-45c0-9 7-16 16-16z"/>
  
  <!-- Bell clapper in white -->
  <path fill="#ffffff" d="M256 416c-18 0-32 14-32 32s14 32 32 32 32-14 32-32-14-32-32-32z"/>
  
  <!-- Notification dot in red -->
  <circle cx="320" cy="144" r="48" fill="#ef5350"/>
</svg>
